<svg width="90" height="96" viewBox="0 0 90 96" fill="none" xmlns="http://www.w3.org/2000/svg">
<path d="M40.2973 0H0.13153V0.0510481H0.0317754C0.0317754 0.0510481 0.208646 26.1165 10.2444 45.6347C12.7386 41.2146 16.8518 36.5605 19.0875 34.4547C16.4028 27.1204 14.938 19.2119 14.2306 11.933H14.3712V11.8734H41.0002C62.99 11.8734 74.0552 24.1425 74.0552 48.0085C74.0552 71.8745 62.99 84.1393 41.0002 84.1393H14.3712V83.5267C16.1081 69.2241 20.6566 52.3095 28.4295 46.2388C32.8193 42.8056 37.6943 41.2061 41.5807 41.2061C52.138 41.2061 56.4552 47.3831 56.4552 47.3831C56.4552 47.3831 52.8273 53.9091 42.5557 53.7857C32.9236 53.6708 29.5632 48.7317 29.5632 48.7317C28.6695 49.6642 27.8538 50.6597 27.1234 51.7097C27.1234 51.7097 25.4273 54.4408 24.9421 55.398C24.3162 56.6275 23.4637 59.0311 23.4637 59.0311C42.8504 71.0407 54.1379 63.7405 58.0379 62.1409C64.9491 59.3076 69.7198 53.5772 69.6246 47.6129C69.5022 39.9553 63.0399 35.7011 57.6751 32.9742C45.7664 26.878 29.3863 29.3156 21.3414 35.9521C1.17004 52.5818 0 96 0 96H40.2701C73.6153 96 90 77.9367 90 48.0043C90 18.0718 73.6425 0 40.2973 0Z" fill="#2E2E2C"/>
</svg>
