<svg width="169" height="171" viewBox="0 0 169 171" fill="none" xmlns="http://www.w3.org/2000/svg">
<g id="XOC 2" clip-path="url(#clip0_4_59)">
<path id="Vector" d="M84.5 169.575C130.39 169.575 167.592 131.933 167.592 85.5C167.592 39.0666 130.39 1.42499 84.5 1.42499C38.6097 1.42499 1.40833 39.0666 1.40833 85.5C1.40833 131.933 38.6097 169.575 84.5 169.575Z" fill="#FCF0E4" fill-opacity="0.2"/>
<path id="Vector_2" d="M84.5 2.85C106.156 2.87514 126.918 11.591 142.231 27.0854C157.545 42.5798 166.158 63.5876 166.183 85.5C166.183 106.049 157.123 127.006 141.322 142.994C125.52 158.983 104.808 168.15 84.5 168.15C62.8362 168.15 42.0598 159.442 26.7412 143.942C11.4226 128.443 2.81667 107.42 2.81667 85.5C2.81667 63.5799 11.4226 42.5575 26.7412 27.0576C42.0598 11.5578 62.8362 2.85 84.5 2.85ZM84.5 0C62.0892 0 40.5963 9.00803 24.7495 25.0424C8.90265 41.0768 0 62.824 0 85.5C0 108.176 8.90265 129.923 24.7495 145.958C40.5963 161.992 62.0892 171 84.5 171C128.628 171 169 130.15 169 85.5C169 62.824 160.097 41.0768 144.251 25.0424C128.404 9.00803 106.911 0 84.5 0Z" fill="#603913"/>
<path id="Vector_3" d="M58.7838 142.063C39.0358 119.554 39.5741 97.0488 60.3987 74.5465C48.093 97.0552 47.5547 119.561 58.7838 142.063Z" fill="#412312" stroke="#010101" stroke-width="0.25" stroke-miterlimit="10"/>
<path id="Vector_4" d="M68.2572 142.063C89.1131 120.53 89.6169 98.9963 69.7688 77.463C82.4438 100.159 80.2093 121.543 68.2572 142.063Z" fill="#412312" stroke="#010101" stroke-width="0.25" stroke-miterlimit="10"/>
<g id="Vector_5">
<path d="M74.5196 68.172L67.0085 81.2345C76.2659 105.725 74.4069 126.569 63.3468 144.419C53.3289 122.968 52.8313 101.973 63.3468 81.529L67.0085 73.378L67.769 71.7345" fill="#412312"/>
<path d="M74.5196 68.172L67.0085 81.2345C76.2659 105.725 74.4069 126.569 63.3468 144.419C53.3289 122.968 52.8313 101.973 63.3468 81.529L67.0085 73.378L67.769 71.7345" stroke="#010101" stroke-width="0.25" stroke-miterlimit="10"/>
</g>
<path id="Vector_6" d="M46.1276 57.076C60.5396 43.643 75.8247 39.14 92.1332 45.4385C78.2282 54.9005 62.7929 58.425 46.1276 57.076Z" fill="#1B3B1C" stroke="#010101" stroke-width="0.25" stroke-miterlimit="10"/>
<path id="Vector_7" d="M112.986 124.602C92.4336 110.048 82.2561 90.1455 84.0963 64.068C74.745 95.095 85.4389 114.693 112.986 124.602Z" fill="#412312" stroke="#010101" stroke-width="0.25" stroke-miterlimit="10"/>
<path id="Vector_8" d="M120.91 119.985C122.3 96.729 113.095 77.7069 93.2974 62.9185C119.624 72.485 130.092 90.8105 120.91 119.985Z" fill="#412312" stroke="#010101" stroke-width="0.25" stroke-miterlimit="10"/>
<g id="Vector_9">
<path d="M93.7574 53.9505L87.5514 60.6005C87.7016 91.7605 99.4847 111.73 118.61 124.631C118.901 103.028 110.479 84.094 92.1519 68.2005C91.6532 63.3889 92.2011 58.5251 93.7574 53.9505C102.076 46.4138 111.127 41.7335 120.91 39.9095V36.1095C107.39 29.6685 98.6866 34.922 92.1519 45.4195C81.3266 70.0815 63.4407 77.9 40.3722 73.3685" fill="#412312"/>
<path d="M93.7574 53.9505L87.5514 60.6005C87.7016 91.7605 99.4847 111.73 118.61 124.631C118.901 103.028 110.479 84.094 92.1519 68.2005C91.6532 63.3889 92.2011 58.5251 93.7574 53.9505ZM93.7574 53.9505C102.076 46.4138 111.127 41.7335 120.91 39.9095V36.1095C107.39 29.6685 98.6866 34.922 92.1519 45.4195C81.3266 70.0815 63.4407 77.9 40.3722 73.3685" stroke="#010101" stroke-width="0.25" stroke-miterlimit="10"/>
</g>
<path id="Vector_10" d="M92.152 44.27L46.1276 55.917" stroke="#FCF0E4" stroke-opacity="0.2" stroke-miterlimit="10"/>
</g>
<defs>
<clipPath id="clip0_4_59">
<rect width="169" height="171" fill="white"/>
</clipPath>
</defs>
</svg>
